<svg width="35.000000" height="35.000000" viewBox="0 0 35 35" fill="none" xmlns="http://www.w3.org/2000/svg" xmlns:xlink="http://www.w3.org/1999/xlink">
	<desc>
			Created with Pixso.
	</desc>
	<defs>
		<clipPath id="clip31_18">
			<rect id="shopping_cart" width="35.000000" height="35.000000" fill="white" fill-opacity="0"/>
		</clipPath>
	</defs>
	<rect id="фрейм 6" width="35.000000" height="35.000000" fill="#FFFFFF" fill-opacity="0"/>
	<rect id="shopping_cart" width="35.000000" height="35.000000" fill="#FFFFFF" fill-opacity="0"/>
	<g clip-path="url(#clip31_18)">
		<path id="矢量 291" d="M10.2 26.25C8.6 26.25 7.3 27.56 7.3 29.16C7.3 30.77 8.6 32.08 10.2 32.08C11.81 32.08 13.12 30.77 13.12 29.16C13.12 27.56 11.81 26.25 10.2 26.25ZM1.45 2.91L1.45 5.83L4.37 5.83L9.62 16.9L7.65 20.47C7.42 20.88 7.29 21.36 7.29 21.87C7.29 23.47 8.6 24.79 10.2 24.79L27.7 24.79L27.7 21.87L10.82 21.87C10.61 21.87 10.45 21.71 10.45 21.51L10.5 21.33L11.81 18.95L22.67 18.95C23.77 18.95 24.73 18.36 25.22 17.45L30.45 7.99C30.56 7.78 30.62 7.53 30.62 7.29C30.62 6.48 29.96 5.83 29.16 5.83L7.59 5.83L6.22 2.91L1.45 2.91ZM24.79 26.25C23.18 26.25 21.88 27.56 21.88 29.16C21.88 30.77 23.18 32.08 24.79 32.08C26.39 32.08 27.7 30.77 27.7 29.16C27.7 27.56 26.39 26.25 24.79 26.25Z" fill="#9C9C9C" fill-opacity="1.000000" fill-rule="evenodd"/>
	</g>
</svg>
