<svg width="24.000000" height="24.000000" viewBox="0 0 24 24" fill="none" xmlns="http://www.w3.org/2000/svg" xmlns:xlink="http://www.w3.org/1999/xlink">
	<defs/>
	<rect id="close_24px" width="24.000000" height="24.000000" fill="#FFFFFF" fill-opacity="0"/>
	<path id="icon/navigation/close_24px" d="M18.29 5.7C18.11 5.52 17.85 5.41 17.59 5.41C17.33 5.41 17.07 5.52 16.88 5.7L11.99 10.59L7.1 5.69C6.92 5.51 6.66 5.4 6.4 5.4C6.14 5.4 5.88 5.51 5.69 5.69C5.3 6.08 5.3 6.71 5.69 7.1L10.58 12L5.69 16.89C5.3 17.27 5.3 17.9 5.69 18.29C6.08 18.68 6.71 18.68 7.1 18.29L11.99 13.4L16.88 18.29C17.27 18.68 17.9 18.68 18.29 18.29C18.68 17.9 18.68 17.27 18.29 16.89L13.4 12L18.29 7.1C18.67 6.72 18.67 6.08 18.29 5.7Z" fill="#000000" fill-opacity="0.540000" fill-rule="evenodd"/>
</svg>
