<svg width="29.167480" height="26.957275" viewBox="0 0 29.1675 26.9573" fill="none" xmlns="http://www.w3.org/2000/svg" xmlns:xlink="http://www.w3.org/1999/xlink">
	<desc>
			Created with Pixso.
	</desc>
	<defs/>
	<path id="矢量 17" d="M14.58 2.22C18.01 -0.85 23.3 -0.75 26.6 2.56C29.9 5.86 30.01 11.13 26.94 14.57L14.58 26.95L2.21 14.57C-0.86 11.13 -0.74 5.86 2.56 2.56C5.86 -0.74 11.14 -0.86 14.58 2.22L14.58 2.22ZM24.53 4.62C22.35 2.43 18.82 2.34 16.53 4.39L14.58 6.14L12.63 4.4C10.34 2.34 6.81 2.43 4.62 4.62C2.45 6.79 2.34 10.27 4.34 12.57L14.58 22.82L24.82 12.57C26.82 10.27 26.71 6.8 24.53 4.62L24.53 4.62Z" fill="#FFFFFF" fill-opacity="1.000000" fill-rule="evenodd"/>
</svg>
