<svg width="43.200012" height="60.316498" viewBox="0 0 43.2 60.3165" fill="none" xmlns="http://www.w3.org/2000/svg" xmlns:xlink="http://www.w3.org/1999/xlink">
	<defs>
		<radialGradient gradientTransform="translate(20.7599 29.3858) rotate(0) scale(29.9307 30.8744)" cx="0.000000" cy="0.000000" r="1.000000" id="paint_radial_130_378_0" gradientUnits="userSpaceOnUse">
			<stop stop-color="#F2F0C1"/>
			<stop offset="1.000000" stop-color="#FED586"/>
		</radialGradient>
	</defs>
	<rect id="фрейм 3" width="43.200001" height="60.000000" fill="#FFFFFF" fill-opacity="0"/>
	<path id="path" d="M27.5 19.15C32.77 18.6 38.13 21.11 40.6 23.84L38.73 25.68C36.12 22.9 31.85 21.23 27.5 21.69L27.5 19.15ZM39.99 52.9C36.77 56.12 33.36 57.78 28.8 57.78C19.19 57.78 13.09 50.64 13.09 39.58C13.09 31.27 16.56 25.29 22.47 22.85L22.47 20.07C14.71 22.54 9.81 29.59 9.81 39.62C9.81 52.27 17.57 60.31 28.55 60.31C34.4 60.31 38.46 58.15 41.87 54.62L39.99 52.9ZM42.38 20.04L39.98 20.04L39.98 28.99L42.38 28.99L42.38 20.04ZM2.55 33.32C2.54 33.28 2.47 32.97 2.46 32.73C2.46 32.65 2.46 32.59 2.46 32.57C2.46 29.48 2.46 26.39 2.46 23.3L0.06 23.3L0.06 34.41C0.89 34.05 1.72 33.69 2.55 33.32ZM38.73 25.68C38.79 25.74 38.78 25.74 38.84 25.81C39.07 26.09 39.13 26.27 39.25 26.52C39.24 26.5 39.89 27.8 39.99 28.92C40 28.92 40.01 27.74 40.01 27.16C40.01 26.5 40.01 25.58 39.98 24.45L38.73 25.68ZM8.75 39.7C8.75 39.12 8.77 38.55 8.81 37.98C5.76 37.15 3.01 35.36 2.51 33.06C2.48 32.93 2.48 32.81 2.46 32.73C1.67 33.29 0.85 33.86 0.06 34.41C2.01 37.68 5.21 39.75 8.77 40.6C8.76 40.3 8.75 40.01 8.75 39.7ZM23.42 19.82L23.42 22.6L23.42 27.79C23.42 34.59 20.59 38.08 14.05 38.47C14.04 38.75 14.03 39.04 14.03 39.33C14.03 39.9 14.05 40.46 14.09 41.01C23.45 40.55 26.56 34.92 26.56 28.04L26.56 2.87L34.56 2.85L34.57 0.5L11.16 0.5L11.16 2.84L23.42 2.84L23.42 19.82ZM39.98 23.21C39.98 23.63 39.98 24.04 39.98 24.45C40.18 24.25 40.39 24.04 40.6 23.84C40.52 23.74 40.43 23.65 40.33 23.54C40.21 23.42 40.09 23.31 39.98 23.21Z" fill="#000000" fill-opacity="1.000000" fill-rule="nonzero"/>
	<path id="path" d="M26.92 18.33C32.08 17.78 37.34 20.25 39.77 22.93L37.93 24.74C35.37 22.01 31.19 20.37 26.92 20.82L26.92 18.33ZM39.17 51.49C36.01 54.65 32.66 56.28 28.19 56.28C18.77 56.28 12.78 49.27 12.78 38.4C12.78 30.23 16.19 24.36 21.99 21.96L21.99 19.23C14.37 21.66 9.56 28.59 9.56 38.44C9.56 50.86 17.18 58.77 27.95 58.77C33.68 58.77 37.67 56.65 41.01 53.18L39.17 51.49ZM41.52 19.2L39.16 19.2L39.16 28L41.52 28L41.52 19.2ZM2.43 32.25C2.43 32.21 2.36 31.9 2.35 31.67C2.35 31.59 2.35 31.53 2.35 31.51C2.35 28.48 2.35 25.44 2.35 22.4L0 22.4L0 33.32C0.81 32.96 1.62 32.61 2.43 32.25ZM37.93 24.74C37.99 24.8 37.98 24.79 38.04 24.87C38.26 25.14 38.32 25.32 38.44 25.57C38.44 25.54 39.08 26.82 39.17 27.92C39.18 27.92 39.19 26.77 39.19 26.19C39.19 25.54 39.19 24.64 39.16 23.53L37.93 24.74ZM8.53 38.52C8.53 37.94 8.54 37.38 8.58 36.83C5.59 36.01 2.89 34.25 2.39 32C2.37 31.87 2.36 31.74 2.35 31.67C1.57 32.22 0.77 32.77 0 33.32C1.91 36.53 5.05 38.57 8.54 39.4C8.53 39.11 8.53 38.82 8.53 38.52ZM22.91 18.98L22.91 21.71L22.91 26.82C22.91 33.5 20.13 36.93 13.72 37.31C13.71 37.59 13.71 37.87 13.71 38.15C13.71 38.71 13.72 39.26 13.76 39.8C22.95 39.35 26 33.82 26 27.06L26 2.33L33.85 2.31L33.86 0L10.88 0L10.88 2.3L22.91 2.3L22.91 18.98ZM39.16 22.32C39.16 22.72 39.16 23.13 39.16 23.53C39.36 23.33 39.56 23.13 39.77 22.93C39.69 22.84 39.6 22.74 39.5 22.64C39.39 22.52 39.27 22.41 39.16 22.32Z" fill="url(#paint_radial_130_378_0)" fill-opacity="1.000000" fill-rule="nonzero"/>
</svg>
