<svg width="597.990173" height="321.519989" viewBox="0 0 597.99 321.52" fill="none" xmlns="http://www.w3.org/2000/svg" xmlns:xlink="http://www.w3.org/1999/xlink">
	<defs/>
	<path id="path" d="M4.61 263.79L12.67 263.79C13.84 256.42 16.76 250.97 21.44 247.42C26.12 243.88 31.12 242.11 36.46 242.11C43.4 242.11 49.22 244.43 53.93 249.08C58.64 253.73 60.99 259.45 60.99 266.24C60.99 272.95 58.66 278.65 53.99 283.35C49.32 288.04 43.6 290.4 36.83 290.4C30.62 290.4 25.22 288.41 20.61 284.42C16.01 280.43 13.36 274.99 12.67 268.09L4.61 268.09L4.61 289.25L0.02 289.25L0.02 243.28L4.61 243.28L4.61 263.79ZM56.23 266.24C56.23 260.54 54.27 255.86 50.34 252.15C46.41 248.44 41.87 246.59 36.7 246.59C31.55 246.59 27.04 248.47 23.17 252.23C19.29 255.99 17.36 260.74 17.36 266.46C17.36 272.04 19.28 276.68 23.13 280.38C26.97 284.07 31.5 285.93 36.71 285.93C42.11 285.93 46.71 284.07 50.52 280.34C54.33 276.6 56.23 271.9 56.23 266.24Z" fill="#FFFFFF" fill-opacity="1.000000" fill-rule="nonzero"/>
	<path id="path" d="M70.3 243.27L79.36 243.27C83.01 243.27 85.81 243.7 87.77 244.57C89.73 245.44 91.27 246.76 92.41 248.55C93.55 250.34 94.11 252.33 94.11 254.52C94.11 256.56 93.61 258.42 92.62 260.1C91.62 261.78 90.16 263.14 88.24 264.18C90.63 264.99 92.47 265.95 93.75 267.04C95.04 268.13 96.04 269.46 96.76 271.01C97.48 272.56 97.84 274.24 97.84 276.06C97.84 279.75 96.49 282.87 93.79 285.42C91.09 287.97 87.47 289.25 82.93 289.25L70.31 289.25L70.3 243.27ZM74.8 247.77L74.8 262.49L77.43 262.49C80.62 262.49 82.97 262.19 84.48 261.6C85.98 261.01 87.17 260.07 88.05 258.79C88.93 257.51 89.37 256.09 89.37 254.52C89.37 252.42 88.63 250.77 87.16 249.57C85.69 248.37 83.34 247.77 80.13 247.77L74.8 247.77ZM74.8 267.1L74.8 284.73L80.5 284.73C83.86 284.73 86.32 284.4 87.89 283.75C89.45 283.09 90.71 282.07 91.66 280.67C92.61 279.26 93.08 277.76 93.08 276.14C93.08 274.1 92.41 272.32 91.08 270.79C89.75 269.28 87.91 268.24 85.57 267.68C84 267.29 81.28 267.12 77.4 267.12L74.8 267.1Z" fill="#FFFFFF" fill-opacity="1.000000" fill-rule="nonzero"/>
	<path id="path" d="M106.95 243.27L133.28 243.27L133.28 247.77L111.55 247.77L111.55 262.18L133.11 262.18L133.11 266.68L111.55 266.68L111.55 284.74L133.11 284.74L133.11 289.24L106.95 289.24L106.95 243.27Z" fill="#FFFFFF" fill-opacity="1.000000" fill-rule="nonzero"/>
	<path id="path" d="M178.45 289.24L173.45 289.24L158.22 253.73L142.74 289.24L137.74 289.24L157.74 243.27L158.74 243.27L178.45 289.24Z" fill="#FFFFFF" fill-opacity="1.000000" fill-rule="nonzero"/>
	<path id="path" d="M222.33 289.24L217.55 289.24L217.55 253.99L187.24 289.24L186.21 289.24L186.21 243.27L190.8 243.27L190.8 279.12L221.3 243.27L222.33 243.27L222.33 289.24Z" fill="#FFFFFF" fill-opacity="1.000000" fill-rule="nonzero"/>
	<path id="path" d="M233.48 243.27L242.64 243.27C247.89 243.27 251.43 243.5 253.26 243.96C255.88 244.61 258.03 245.93 259.7 247.94C261.37 249.95 262.2 252.48 262.2 255.52C262.2 258.57 261.39 261.1 259.76 263.1C258.14 265.09 255.9 266.43 253.04 267.12C250.96 267.62 247.06 267.87 241.35 267.87L238.07 267.87L238.07 289.25L233.48 289.25L233.48 243.27ZM238.08 247.77L238.08 263.35L245.86 263.45C249.01 263.45 251.31 263.16 252.77 262.59C254.23 262.01 255.37 261.09 256.21 259.81C257.04 258.53 257.46 257.1 257.46 255.52C257.46 253.98 257.04 252.57 256.21 251.29C255.38 250.01 254.28 249.1 252.91 248.56C251.55 248.02 249.31 247.75 246.21 247.75L238.08 247.77Z" fill="#FFFFFF" fill-opacity="1.000000" fill-rule="nonzero"/>
	<path id="path" d="M289.1 243.27L293.79 243.27L293.79 260.51L312.18 243.27L318.35 243.27L296.26 263.89L320.07 289.23L313.95 289.23L293.79 267.82L293.79 289.23L289.1 289.23L289.1 243.27Z" fill="#FFFFFF" fill-opacity="1.000000" fill-rule="nonzero"/>
	<path id="path" d="M348.81 242.11C355.77 242.11 361.6 244.43 366.29 249.08C370.98 253.73 373.33 259.45 373.33 266.24C373.33 272.97 370.99 278.68 366.31 283.35C361.63 288.04 355.92 290.39 349.19 290.39C342.37 290.39 336.62 288.06 331.93 283.39C327.24 278.72 324.89 273.07 324.89 266.45C324.89 262.03 325.96 257.94 328.1 254.17C330.24 250.4 333.15 247.45 336.84 245.31C340.53 243.18 344.52 242.11 348.81 242.11ZM349.02 246.58C345.62 246.58 342.4 247.47 339.35 249.24C336.3 251.01 333.92 253.4 332.21 256.4C330.5 259.4 329.64 262.75 329.64 266.44C329.64 271.9 331.53 276.51 335.32 280.28C339.11 284.04 343.67 285.92 349.01 285.92C352.58 285.92 355.88 285.04 358.92 283.32C361.96 281.59 364.32 279.22 366.03 276.22C367.73 273.22 368.58 269.88 368.58 266.21C368.58 262.56 367.73 259.26 366.03 256.31C364.33 253.36 361.93 251 358.85 249.23C355.76 247.47 352.48 246.58 349.02 246.58Z" fill="#FFFFFF" fill-opacity="1.000000" fill-rule="nonzero"/>
	<path id="path" d="M380.45 289.24L387.03 243.27L387.78 243.27L406.47 280.99L424.98 243.27L425.72 243.27L432.34 289.24L427.84 289.24L423.3 256.35L407.05 289.24L405.88 289.24L389.43 256.12L384.91 289.24L380.45 289.24Z" fill="#FFFFFF" fill-opacity="1.000000" fill-rule="nonzero"/>
	<path id="path" d="M441.3 243.27L473.89 243.27L473.89 289.24L469.3 289.24L469.3 247.65L445.89 247.65L445.89 289.24L441.3 289.24L441.3 243.27Z" fill="#FFFFFF" fill-opacity="1.000000" fill-rule="nonzero"/>
	<path id="path" d="M522.3 289.24L517.3 289.24L502.07 253.73L486.59 289.24L481.59 289.24L501.59 243.27L502.59 243.27L522.3 289.24Z" fill="#FFFFFF" fill-opacity="1.000000" fill-rule="nonzero"/>
	<path id="path" d="M566.17 289.24L561.39 289.24L561.39 253.99L531.08 289.24L530.05 289.24L530.05 243.27L534.64 243.27L534.64 279.12L565.14 243.27L566.17 243.27L566.17 289.24Z" fill="#FFFFFF" fill-opacity="1.000000" fill-rule="nonzero"/>
	<path id="path" d="M572.8 247.77L572.8 243.27L597.99 243.27L597.99 247.77L587.74 247.77L587.74 289.24L583.05 289.24L583.05 247.77L572.8 247.77Z" fill="#FFFFFF" fill-opacity="1.000000" fill-rule="nonzero"/>
	<path id="path" d="M0 298.35L14.24 298.35L14.24 315.32L12.06 315.32L12.06 300.41L2.19 300.41L2.19 315.32L0.01 315.32L0 298.35Z" fill="#FFFFFF" fill-opacity="1.000000" fill-rule="nonzero"/>
	<path id="path" d="M19.12 298.35L21.31 298.35L21.31 301.47C22.17 300.29 23.16 299.4 24.29 298.79C25.41 298.21 26.66 297.91 28.04 297.91C30.45 297.91 32.5 298.78 34.22 300.51C35.93 302.25 36.79 304.34 36.79 306.78C36.79 309.28 35.93 311.39 34.24 313.13C32.54 314.87 30.49 315.74 28.09 315.74C26.74 315.74 25.5 315.46 24.37 314.9C23.24 314.34 22.21 313.5 21.3 312.39L21.3 321.51L19.12 321.51L19.12 298.35ZM27.86 300.01C25.97 300.01 24.38 300.68 23.09 302C21.8 303.32 21.15 304.96 21.15 306.92C21.15 308.21 21.44 309.37 22.01 310.39C22.58 311.41 23.41 312.23 24.48 312.84C25.55 313.45 26.69 313.74 27.88 313.74C29.05 313.74 30.15 313.44 31.19 312.82C32.23 312.22 33.04 311.37 33.66 310.28C34.27 309.19 34.58 308.04 34.58 306.85C34.58 305.65 34.28 304.5 33.66 303.42C33.06 302.34 32.25 301.5 31.22 300.9C30.2 300.32 29.08 300.01 27.86 300.01Z" fill="#FFFFFF" fill-opacity="1.000000" fill-rule="nonzero"/>
	<path id="path" d="M48.92 297.92C51.53 297.92 53.7 298.87 55.42 300.76C56.98 302.49 57.76 304.53 57.76 306.89C57.76 309.26 56.93 311.32 55.28 313.1C53.63 314.87 51.51 315.76 48.91 315.76C46.31 315.76 44.18 314.87 42.53 313.1C40.88 311.32 40.05 309.26 40.05 306.89C40.05 304.54 40.83 302.5 42.39 300.78C44.12 298.87 46.29 297.92 48.92 297.92ZM48.91 300.04C47.1 300.04 45.53 300.72 44.23 302.06C42.93 303.4 42.27 305.01 42.27 306.93C42.27 308.16 42.57 309.29 43.16 310.35C43.75 311.42 44.56 312.24 45.57 312.82C46.58 313.4 47.69 313.69 48.9 313.69C50.11 313.69 51.22 313.4 52.23 312.82C53.24 312.24 54.04 311.42 54.64 310.35C55.24 309.29 55.53 308.16 55.53 306.93C55.53 305.03 54.88 303.41 53.57 302.06C52.26 300.71 50.71 300.04 48.91 300.04Z" fill="#FFFFFF" fill-opacity="1.000000" fill-rule="nonzero"/>
	<path id="path" d="M61.93 313.46L68.47 298.35L69.61 298.35L76.12 313.46L78.17 313.46L78.17 317.48L76.07 317.48L76.07 315.31L62.04 315.31L62.04 317.57L59.89 317.57L59.89 313.45L61.93 313.46ZM69.01 301.72L64.06 313.46L73.78 313.46L69.01 301.72Z" fill="#FFFFFF" fill-opacity="1.000000" fill-rule="nonzero"/>
	<path id="path" d="M98.02 298.35L98.02 315.32L95.87 315.32L95.87 312.4C94.95 313.51 93.93 314.35 92.79 314.91C91.65 315.47 90.41 315.75 89.06 315.75C86.66 315.75 84.61 314.88 82.91 313.14C81.21 311.4 80.36 309.28 80.36 306.79C80.36 304.35 81.22 302.26 82.93 300.51C84.64 298.78 86.71 297.92 89.12 297.92C90.51 297.92 91.77 298.22 92.9 298.81C94.03 299.4 95.02 300.29 95.87 301.48L95.87 298.35L98.02 298.35ZM89.3 300.01C88.09 300.01 86.96 300.32 85.94 300.92C84.91 301.51 84.09 302.35 83.49 303.44C82.88 304.51 82.58 305.66 82.58 306.87C82.58 308.06 82.89 309.21 83.5 310.29C84.11 311.39 84.94 312.24 85.97 312.85C87 313.46 88.11 313.76 89.3 313.76C90.49 313.76 91.63 313.46 92.7 312.85C93.77 312.26 94.59 311.44 95.17 310.41C95.75 309.38 96.03 308.22 96.03 306.94C96.03 304.98 95.38 303.34 94.09 302.01C92.8 300.7 91.19 300.01 89.3 300.01Z" fill="#FFFFFF" fill-opacity="1.000000" fill-rule="nonzero"/>
	<path id="path" d="M111.63 298.35L113.84 298.35L113.84 305.85L121.95 298.35L124.62 298.35L116.6 305.92L125.23 315.32L122.44 315.32L115.09 307.12L113.84 308.16L113.84 315.32L111.63 315.32L111.63 308.16L110.41 307.12L103.12 315.32L100.3 315.32L108.82 305.9L100.94 298.35L103.61 298.35L111.63 305.84L111.63 298.35Z" fill="#FFFFFF" fill-opacity="1.000000" fill-rule="nonzero"/>
	<path id="path" d="M144.39 298.35L144.39 315.32L142.25 315.32L142.25 312.4C141.33 313.51 140.31 314.35 139.17 314.91C138.03 315.47 136.78 315.75 135.44 315.75C133.03 315.75 130.99 314.88 129.28 313.14C127.59 311.4 126.74 309.28 126.74 306.79C126.74 304.35 127.6 302.26 129.31 300.51C131.02 298.78 133.09 297.92 135.5 297.92C136.89 297.92 138.14 298.22 139.28 298.81C140.41 299.4 141.39 300.29 142.25 301.48L142.25 298.35L144.39 298.35ZM135.67 300.01C134.46 300.01 133.33 300.32 132.31 300.92C131.28 301.51 130.46 302.35 129.86 303.44C129.25 304.51 128.95 305.66 128.95 306.87C128.95 308.06 129.25 309.21 129.87 310.29C130.48 311.39 131.31 312.24 132.34 312.85C133.37 313.46 134.48 313.76 135.67 313.76C136.86 313.76 138 313.46 139.07 312.85C140.14 312.26 140.96 311.44 141.53 310.41C142.12 309.38 142.39 308.22 142.39 306.94C142.39 304.98 141.75 303.34 140.46 302.01C139.17 300.7 137.56 300.01 135.67 300.01Z" fill="#FFFFFF" fill-opacity="1.000000" fill-rule="nonzero"/>
	<path id="path" d="M160.35 315.32L158.17 315.32L158.17 298.35L160.35 298.35L160.35 305.48L163.2 305.48C163.59 303.21 164.6 301.39 166.24 300C167.88 298.6 169.79 297.92 171.96 297.92C174.48 297.92 176.58 298.79 178.27 300.57C179.96 302.34 180.81 304.44 180.81 306.89C180.81 309.31 179.97 311.4 178.28 313.14C176.59 314.89 174.49 315.76 171.97 315.76C169.72 315.76 167.76 315.01 166.08 313.54C164.4 312.07 163.44 310.1 163.2 307.63L160.35 307.63L160.35 315.32ZM178.59 306.93C178.59 305.04 177.93 303.43 176.62 302.07C175.31 300.73 173.76 300.04 171.97 300.04C170.17 300.04 168.61 300.73 167.3 302.07C165.99 303.43 165.33 305.04 165.33 306.93C165.33 308.79 165.96 310.39 167.21 311.71C168.46 313.03 170.05 313.68 171.96 313.68C173.84 313.68 175.42 313.01 176.68 311.71C177.96 310.4 178.59 308.79 178.59 306.93Z" fill="#FFFFFF" fill-opacity="1.000000" fill-rule="nonzero"/>
	<path id="path" d="M189.78 315.32L184.85 315.32L184.85 298.35L189.7 298.35C191.55 298.35 192.88 298.76 193.7 299.63C194.52 300.48 194.92 301.48 194.92 302.62C194.92 304.34 194.16 305.51 192.64 306.12C194.84 306.9 195.95 308.41 195.95 310.63C195.95 313.76 193.89 315.32 189.78 315.32ZM187.03 300.24L187.03 305.53L188.45 305.53C189.74 305.53 190.59 305.48 190.98 305.37C191.38 305.26 191.75 305.01 192.1 304.6C192.45 304.19 192.62 303.65 192.62 302.98C192.62 302.26 192.44 301.68 192.07 301.21C191.71 300.73 191.32 300.45 190.92 300.37C190.52 300.29 189.69 300.25 188.44 300.25L187.03 300.24ZM187.03 307.54L187.03 313.48L189.37 313.48C190.47 313.48 191.26 313.41 191.74 313.26C192.21 313.13 192.62 312.82 192.96 312.35C193.3 311.89 193.47 311.29 193.47 310.57C193.47 309.65 193.18 308.92 192.59 308.37C192.01 307.82 191.24 307.54 190.28 307.54L187.03 307.54Z" fill="#FFFFFF" fill-opacity="1.000000" fill-rule="nonzero"/>
	<path id="path" d="M214.07 309.69L215.91 310.66C215.31 311.84 214.61 312.79 213.82 313.53C213.03 314.26 212.14 314.81 211.15 315.19C210.16 315.57 209.04 315.76 207.79 315.76C205.02 315.76 202.86 314.85 201.3 313.04C199.74 311.23 198.96 309.17 198.96 306.89C198.96 304.74 199.62 302.82 200.94 301.14C202.62 299 204.86 297.93 207.67 297.93C210.56 297.93 212.87 299.03 214.6 301.22C215.83 302.76 216.45 304.7 216.47 307.01L201.2 307.01C201.24 308.99 201.87 310.6 203.09 311.87C204.31 313.13 205.81 313.76 207.6 313.76C208.46 313.76 209.3 313.6 210.12 313.31C210.94 313.01 211.63 312.6 212.2 312.1C212.79 311.6 213.4 310.79 214.07 309.69ZM214.07 305.12C213.78 303.96 213.35 303.03 212.8 302.32C212.24 301.63 211.51 301.07 210.59 300.65C209.67 300.22 208.71 300.01 207.7 300.01C206.03 300.01 204.6 300.54 203.41 301.62C202.54 302.4 201.87 303.57 201.43 305.13L214.07 305.12Z" fill="#FFFFFF" fill-opacity="1.000000" fill-rule="nonzero"/>
	<path id="path" d="M234.91 315.32L232.59 315.32L226.91 302.96L221.28 315.32L218.94 315.32L226.72 298.35L227.11 298.35L234.91 315.32Z" fill="#FFFFFF" fill-opacity="1.000000" fill-rule="nonzero"/>
	<path id="path" d="M240.42 298.35L240.42 310.9L252.88 298.35L253.05 298.35L253.05 315.32L250.87 315.32L250.87 302.88L238.5 315.32L238.23 315.32L238.23 298.35L240.42 298.35Z" fill="#FFFFFF" fill-opacity="1.000000" fill-rule="nonzero"/>
	<path id="path" d="M257.95 298.35L260.13 298.35L260.13 301.47C260.99 300.29 261.98 299.4 263.1 298.79C264.23 298.21 265.48 297.91 266.85 297.91C269.26 297.91 271.32 298.78 273.04 300.51C274.75 302.25 275.6 304.34 275.6 306.78C275.6 309.28 274.76 311.39 273.06 313.13C271.35 314.87 269.31 315.74 266.91 315.74C265.56 315.74 264.32 315.46 263.19 314.9C262.06 314.34 261.03 313.5 260.12 312.39L260.12 321.51L257.94 321.51L257.95 298.35ZM266.68 300.01C264.79 300.01 263.2 300.68 261.91 302C260.62 303.32 259.97 304.96 259.97 306.92C259.97 308.21 260.26 309.37 260.82 310.39C261.4 311.41 262.23 312.23 263.29 312.84C264.37 313.45 265.51 313.74 266.7 313.74C267.87 313.74 268.97 313.44 270.01 312.82C271.04 312.22 271.85 311.37 272.48 310.28C273.09 309.19 273.4 308.04 273.4 306.85C273.4 305.65 273.1 304.5 272.49 303.42C271.88 302.34 271.07 301.5 270.04 300.9C269.01 300.32 267.9 300.01 266.68 300.01Z" fill="#FFFFFF" fill-opacity="1.000000" fill-rule="nonzero"/>
	<path id="path" d="M291.76 307.15L281.89 307.15L281.89 315.32L279.71 315.32L279.71 298.35L281.89 298.35L281.89 305.09L291.76 305.09L291.76 298.35L293.94 298.35L293.94 315.32L291.76 315.32L291.76 307.15Z" fill="#FFFFFF" fill-opacity="1.000000" fill-rule="nonzero"/>
	<path id="path" d="M306.84 297.92C309.45 297.92 311.62 298.87 313.34 300.76C314.9 302.49 315.68 304.53 315.68 306.89C315.68 309.26 314.85 311.32 313.2 313.1C311.54 314.87 309.43 315.76 306.82 315.76C304.23 315.76 302.1 314.87 300.45 313.1C298.79 311.32 297.97 309.26 297.97 306.89C297.97 304.54 298.75 302.5 300.31 300.78C302.04 298.87 304.21 297.92 306.84 297.92ZM306.82 300.04C305.01 300.04 303.45 300.72 302.15 302.06C300.85 303.4 300.19 305.01 300.19 306.93C300.19 308.16 300.49 309.29 301.07 310.35C301.67 311.42 302.48 312.24 303.49 312.82C304.5 313.4 305.6 313.69 306.82 313.69C308.03 313.69 309.14 313.4 310.15 312.82C311.16 312.24 311.97 311.42 312.56 310.35C313.15 309.29 313.45 308.16 313.45 306.93C313.45 305.03 312.79 303.41 311.49 302.06C310.18 300.71 308.64 300.04 306.82 300.04Z" fill="#FFFFFF" fill-opacity="1.000000" fill-rule="nonzero"/>
	<path id="path" d="M321.9 300.26L321.9 315.32L319.72 315.32L319.72 298.35L328.3 298.35L328.3 300.26L321.9 300.26Z" fill="#FFFFFF" fill-opacity="1.000000" fill-rule="nonzero"/>
	<path id="path" d="M339.28 297.92C341.89 297.92 344.06 298.87 345.78 300.76C347.34 302.49 348.12 304.53 348.12 306.89C348.12 309.26 347.29 311.32 345.64 313.1C343.99 314.87 341.87 315.76 339.27 315.76C336.67 315.76 334.54 314.87 332.89 313.1C331.24 311.32 330.41 309.26 330.41 306.89C330.41 304.54 331.19 302.5 332.75 300.78C334.48 298.87 336.65 297.92 339.28 297.92ZM339.27 300.04C337.45 300.04 335.89 300.72 334.59 302.06C333.29 303.4 332.63 305.01 332.63 306.93C332.63 308.16 332.93 309.29 333.52 310.35C334.11 311.42 334.92 312.24 335.93 312.82C336.94 313.4 338.05 313.69 339.26 313.69C340.47 313.69 341.58 313.4 342.59 312.82C343.6 312.24 344.41 311.42 345 310.35C345.59 309.29 345.89 308.16 345.89 306.93C345.89 305.03 345.24 303.41 343.93 302.06C342.62 300.71 341.07 300.04 339.27 300.04Z" fill="#FFFFFF" fill-opacity="1.000000" fill-rule="nonzero"/>
	<path id="path" d="M369.03 297.92C371.64 297.92 373.81 298.87 375.53 300.76C377.09 302.49 377.87 304.53 377.87 306.89C377.87 309.26 377.04 311.32 375.39 313.1C373.74 314.87 371.62 315.76 369.02 315.76C366.42 315.76 364.29 314.87 362.64 313.1C360.99 311.32 360.16 309.26 360.16 306.89C360.16 304.54 360.94 302.5 362.5 300.78C364.23 298.87 366.4 297.92 369.03 297.92ZM369.02 300.04C367.2 300.04 365.64 300.72 364.34 302.06C363.04 303.4 362.38 305.01 362.38 306.93C362.38 308.16 362.68 309.29 363.27 310.35C363.86 311.42 364.67 312.24 365.68 312.82C366.69 313.4 367.8 313.69 369.01 313.69C370.22 313.69 371.33 313.4 372.34 312.82C373.35 312.24 374.16 311.42 374.75 310.35C375.34 309.29 375.64 308.16 375.64 306.93C375.64 305.03 374.99 303.41 373.68 302.06C372.37 300.71 370.83 300.04 369.02 300.04Z" fill="#FFFFFF" fill-opacity="1.000000" fill-rule="nonzero"/>
	<path id="path" d="M398.16 291.45L398.16 293.54C397.12 293.72 395.33 293.84 392.8 293.92C390.97 293.98 389.55 294.1 388.56 294.29C387.57 294.47 386.7 294.82 385.96 295.32C385.22 295.84 384.6 296.62 384.09 297.67C383.58 298.71 383.27 299.88 383.14 301.17L382.92 303.56C383.51 301.62 384.49 300.19 385.85 299.29C387.21 298.39 388.72 297.93 390.37 297.93C392.89 297.93 395 298.81 396.69 300.57C398.38 302.35 399.23 304.45 399.23 306.9C399.23 309.32 398.39 311.41 396.7 313.15C395.01 314.9 392.9 315.76 390.37 315.76C387.78 315.76 385.58 314.79 383.78 312.87C381.98 310.94 381.08 307.89 381.08 303.73C381.08 300.82 381.41 298.63 382.07 297.14C382.73 295.65 383.49 294.57 384.34 293.92C385.19 293.26 386.3 292.75 387.65 292.38C389 292.01 391.54 291.76 395.26 291.68C396.41 291.63 397.38 291.56 398.16 291.45ZM397.02 306.93C397.02 305.04 396.36 303.43 395.05 302.07C393.74 300.73 392.18 300.04 390.38 300.04C388.59 300.04 387.03 300.73 385.72 302.07C384.41 303.43 383.75 305.04 383.75 306.93C383.75 308.79 384.38 310.39 385.65 311.71C386.92 313.03 388.49 313.68 390.38 313.68C392.28 313.68 393.86 313.01 395.12 311.71C396.39 310.4 397.02 308.79 397.02 306.93Z" fill="#FFFFFF" fill-opacity="1.000000" fill-rule="nonzero"/>
	<path id="path" d="M411.3 297.92C413.91 297.92 416.08 298.87 417.8 300.76C419.36 302.49 420.14 304.53 420.14 306.89C420.14 309.26 419.31 311.32 417.66 313.1C416.01 314.87 413.89 315.76 411.29 315.76C408.69 315.76 406.56 314.87 404.91 313.1C403.26 311.32 402.43 309.26 402.43 306.89C402.43 304.54 403.21 302.5 404.77 300.78C406.51 298.87 408.68 297.92 411.3 297.92ZM411.3 300.04C409.48 300.04 407.92 300.72 406.62 302.06C405.32 303.4 404.66 305.01 404.66 306.93C404.66 308.16 404.96 309.29 405.55 310.35C406.14 311.42 406.95 312.24 407.96 312.82C408.97 313.4 410.08 313.69 411.29 313.69C412.5 313.69 413.61 313.4 414.62 312.82C415.63 312.24 416.44 311.42 417.03 310.35C417.62 309.29 417.92 308.16 417.92 306.93C417.92 305.03 417.27 303.41 415.96 302.06C414.65 300.71 413.1 300.04 411.3 300.04Z" fill="#FFFFFF" fill-opacity="1.000000" fill-rule="nonzero"/>
	<path id="path" d="M424.21 298.35L426.39 298.35L426.39 301.47C427.25 300.29 428.24 299.4 429.36 298.79C430.48 298.21 431.73 297.91 433.11 297.91C435.52 297.91 437.58 298.78 439.29 300.51C441 302.25 441.86 304.34 441.86 306.78C441.86 309.28 441.01 311.39 439.31 313.13C437.61 314.87 435.56 315.74 433.16 315.74C431.81 315.74 430.57 315.46 429.44 314.9C428.31 314.34 427.28 313.5 426.37 312.39L426.37 321.51L424.19 321.51L424.21 298.35ZM432.95 300.01C431.06 300.01 429.47 300.68 428.18 302C426.89 303.32 426.24 304.96 426.24 306.92C426.24 308.21 426.53 309.37 427.1 310.39C427.67 311.41 428.5 312.23 429.57 312.84C430.64 313.45 431.78 313.74 432.97 313.74C434.14 313.74 435.24 313.44 436.28 312.82C437.32 312.22 438.13 311.37 438.75 310.28C439.36 309.19 439.67 308.04 439.67 306.85C439.67 305.65 439.37 304.5 438.76 303.42C438.15 302.34 437.34 301.5 436.31 300.9C435.28 300.32 434.16 300.01 432.95 300.01Z" fill="#FFFFFF" fill-opacity="1.000000" fill-rule="nonzero"/>
	<path id="path" d="M444.14 298.35L446.45 298.35L452.28 311.41L457.94 298.35L460.26 298.35L450.14 321.51L447.83 321.51L451.1 314.03L444.14 298.35Z" fill="#FFFFFF" fill-opacity="1.000000" fill-rule="nonzero"/>
	<path id="path" d="M463.23 313.46L469.77 298.35L470.91 298.35L477.43 313.46L479.47 313.46L479.47 317.48L477.36 317.48L477.36 315.31L463.33 315.31L463.33 317.57L461.18 317.57L461.18 313.45L463.23 313.46ZM470.31 301.72L465.35 313.46L475.07 313.46L470.31 301.72Z" fill="#FFFFFF" fill-opacity="1.000000" fill-rule="nonzero"/>
	<path id="path" d="M490.44 297.92C493.05 297.92 495.22 298.87 496.94 300.76C498.5 302.49 499.28 304.53 499.28 306.89C499.28 309.26 498.45 311.32 496.8 313.1C495.15 314.87 493.03 315.76 490.43 315.76C487.83 315.76 485.7 314.87 484.05 313.1C482.4 311.32 481.57 309.26 481.57 306.89C481.57 304.54 482.35 302.5 483.91 300.78C485.65 298.87 487.82 297.92 490.44 297.92ZM490.44 300.04C488.62 300.04 487.06 300.72 485.76 302.06C484.46 303.4 483.8 305.01 483.8 306.93C483.8 308.16 484.1 309.29 484.69 310.35C485.28 311.42 486.09 312.24 487.1 312.82C488.11 313.4 489.22 313.69 490.43 313.69C491.64 313.69 492.75 313.4 493.76 312.82C494.77 312.24 495.58 311.42 496.17 310.35C496.76 309.29 497.06 308.16 497.06 306.93C497.06 305.03 496.41 303.41 495.1 302.06C493.79 300.71 492.24 300.04 490.44 300.04Z" fill="#FFFFFF" fill-opacity="1.000000" fill-rule="nonzero"/>
	<path id="path" d="M508.25 315.32L503.32 315.32L503.32 298.35L508.17 298.35C510.02 298.35 511.35 298.76 512.17 299.63C512.99 300.49 513.39 301.48 513.39 302.62C513.39 304.34 512.63 305.51 511.11 306.12C513.31 306.9 514.42 308.41 514.42 310.63C514.43 313.76 512.37 315.32 508.25 315.32ZM505.51 300.24L505.51 305.53L506.93 305.53C508.22 305.53 509.07 305.48 509.46 305.37C509.86 305.26 510.23 305.01 510.58 304.6C510.93 304.19 511.1 303.65 511.1 302.98C511.1 302.26 510.92 301.68 510.55 301.21C510.18 300.73 509.8 300.45 509.4 300.37C509 300.29 508.17 300.25 506.92 300.25L505.51 300.24ZM505.51 307.54L505.51 313.48L507.85 313.48C508.95 313.48 509.74 313.41 510.22 313.26C510.69 313.13 511.1 312.82 511.44 312.35C511.78 311.89 511.95 311.29 511.95 310.57C511.95 309.65 511.66 308.92 511.07 308.37C510.49 307.82 509.72 307.54 508.76 307.54L505.51 307.54Z" fill="#FFFFFF" fill-opacity="1.000000" fill-rule="nonzero"/>
	<path id="path" d="M535.17 298.35L535.17 315.32L533.02 315.32L533.02 312.4C532.09 313.51 531.08 314.35 529.94 314.91C528.8 315.47 527.56 315.75 526.21 315.75C523.81 315.75 521.76 314.88 520.06 313.14C518.36 311.4 517.51 309.28 517.51 306.79C517.51 304.35 518.37 302.26 520.08 300.51C521.8 298.78 523.86 297.92 526.27 297.92C527.65 297.92 528.92 298.22 530.05 298.81C531.18 299.4 532.17 300.29 533.02 301.48L533.02 298.35L535.17 298.35ZM526.44 300.01C525.23 300.01 524.09 300.32 523.08 300.92C522.05 301.51 521.23 302.35 520.63 303.44C520.02 304.51 519.71 305.66 519.71 306.87C519.71 308.06 520.03 309.21 520.64 310.29C521.25 311.39 522.08 312.24 523.11 312.85C524.14 313.46 525.25 313.76 526.44 313.76C527.63 313.76 528.77 313.46 529.84 312.85C530.9 312.26 531.73 311.44 532.31 310.41C532.89 309.38 533.18 308.22 533.18 306.94C533.18 304.98 532.53 303.34 531.24 302.01C529.95 300.7 528.33 300.01 526.44 300.01Z" fill="#FFFFFF" fill-opacity="1.000000" fill-rule="nonzero"/>
	<path id="path" d="M552.13 307.15L542.26 307.15L542.26 315.32L540.08 315.32L540.08 298.35L542.26 298.35L542.26 305.09L552.13 305.09L552.13 298.35L554.31 298.35L554.31 315.32L552.13 315.32L552.13 307.15Z" fill="#FFFFFF" fill-opacity="1.000000" fill-rule="nonzero"/>
	<path id="path" d="M561.36 298.35L561.36 310.9L573.82 298.35L573.99 298.35L573.99 315.32L571.81 315.32L571.81 302.88L559.44 315.32L559.17 315.32L559.17 298.35L561.36 298.35Z" fill="#FFFFFF" fill-opacity="1.000000" fill-rule="nonzero"/>
	<path id="path" d="M586.02 307.73L584.46 307.73L579.63 315.32L577.27 315.32L582.38 307.51C581.11 307.35 580.08 306.87 579.28 306.07C578.5 305.26 578.09 304.26 578.09 303.07C578.09 301.57 578.55 300.41 579.46 299.59C580.37 298.76 581.56 298.35 583.03 298.35L588.2 298.35L588.2 315.32L586.02 315.32L586.02 307.73ZM586.02 300.24L584.59 300.24C583.2 300.24 582.26 300.32 581.78 300.5C581.3 300.67 580.92 300.98 580.64 301.41C580.36 301.84 580.21 302.42 580.21 303.15C580.21 303.85 580.4 304.42 580.77 304.87C581.14 305.32 581.53 305.6 581.99 305.7C582.44 305.79 583.3 305.85 584.59 305.85L586.02 305.85L586.02 300.24Z" fill="#FFFFFF" fill-opacity="1.000000" fill-rule="nonzero"/>
	<path id="path" d="M313.44 69.72C332.87 67.66 352.64 77.04 361.77 87.24L354.87 94.1C345.23 83.73 329.5 77.5 313.44 79.21L313.44 69.72ZM359.53 195.85C347.64 207.86 335.04 214.06 318.22 214.06C282.78 214.06 260.26 187.39 260.26 146.07C260.26 115 273.07 92.65 294.89 83.53L294.89 73.16C266.25 82.39 248.17 108.74 248.17 146.2C248.17 193.47 276.81 223.53 317.32 223.53C338.89 223.53 353.87 215.47 366.44 202.27L359.53 195.85ZM368.35 73.04L359.48 73.04L359.48 106.5L368.35 106.5L368.35 73.04ZM221.36 122.67C221.33 122.53 221.08 121.35 221.06 120.47C221.05 120.15 221.06 119.92 221.06 119.87C221.06 108.32 221.06 96.78 221.06 85.23L212.19 85.23L212.19 126.75C215.24 125.39 218.3 124.03 221.36 122.67ZM354.87 94.1C355.09 94.35 355.06 94.32 355.28 94.6C356.11 95.63 356.33 96.33 356.78 97.25C356.77 97.17 359.17 102.02 359.52 106.21C359.56 106.21 359.6 101.83 359.6 99.63C359.6 97.17 359.58 93.74 359.47 89.52L354.87 94.1ZM244.27 146.5C244.27 144.33 244.34 142.2 244.46 140.09C233.23 136.96 223.06 130.28 221.21 121.71C221.11 121.22 221.1 120.75 221.06 120.47C218.12 122.55 215.12 124.67 212.19 126.75C219.39 138.96 231.19 146.7 244.34 149.87C244.3 148.75 244.27 147.64 244.27 146.5ZM298.37 72.22L298.37 82.59L298.37 102.01C298.37 127.41 287.93 140.47 263.79 141.91C263.76 142.97 263.75 144.03 263.75 145.13C263.75 147.25 263.82 149.34 263.94 151.39C298.5 149.67 309.97 128.66 309.97 102.94L309.97 8.89L339.5 8.8L339.54 0L253.14 0L253.14 8.78L298.37 8.78L298.37 72.22ZM359.47 84.9C359.47 86.44 359.47 87.98 359.47 89.52C360.24 88.76 361 88 361.77 87.24C361.47 86.88 361.14 86.51 360.77 86.13C360.33 85.67 359.89 85.26 359.47 84.9Z" fill="#FFFFFF" fill-opacity="1.000000" fill-rule="nonzero"/>
</svg>
