<svg width="26.666672" height="21.333374" viewBox="0 0 26.6667 21.3334" fill="none" xmlns="http://www.w3.org/2000/svg" xmlns:xlink="http://www.w3.org/1999/xlink">
	<desc>
			Created with Pixso.
	</desc>
	<defs/>
	<path id="矢量 43" d="M24 0L2.66 0C1.18 0 0.01 1.18 0.01 2.66L0 18.66C0 20.14 1.18 21.33 2.66 21.33L24 21.33C25.48 21.33 26.66 20.14 26.66 18.66L26.66 2.66C26.66 1.18 25.48 0 24 0ZM8.66 14.66L7.06 14.66L3.66 10L3.66 14.66L2 14.66L2 6.66L3.66 6.66L7 11.33L7 6.66L8.66 6.66L8.66 14.66ZM15.33 8.34L12 8.34L12 9.83L15.33 9.83L15.33 11.52L12 11.52L12 13L15.33 13L15.33 14.66L10 14.66L10 6.66L15.33 6.66L15.33 8.34ZM24.66 13.33C24.66 14.06 24.06 14.66 23.33 14.66L18 14.66C17.26 14.66 16.66 14.06 16.66 13.33L16.66 6.66L18.33 6.66L18.33 12.68L19.84 12.68L19.84 7.98L21.5 7.98L21.5 12.66L23 12.66L23 6.66L24.66 6.66L24.66 13.33Z" fill="#E8B923" fill-opacity="1.000000" fill-rule="evenodd"/>
</svg>
