<svg width="24.000000" height="24.000000" viewBox="0 0 24 24" fill="none" xmlns="http://www.w3.org/2000/svg" xmlns:xlink="http://www.w3.org/1999/xlink">
	<defs/>
	<rect id="фрейм 12" width="24.000000" height="24.000000" fill="#FFFFFF" fill-opacity="0"/>
	<rect id="phone_24px" width="24.000000" height="24.000000" fill="#FFFFFF" fill-opacity="0"/>
	<path id="icon/communication/phone_24px" d="M19.22 15.26L16.68 14.97C16.07 14.9 15.47 15.11 15.04 15.54L13.2 17.38C10.37 15.94 8.05 13.63 6.61 10.79L8.46 8.94C8.89 8.51 9.1 7.91 9.03 7.3L8.74 4.78C8.62 3.77 7.77 3.01 6.75 3.01L5.02 3.01C3.89 3.01 2.95 3.95 3.02 5.08C3.55 13.62 10.38 20.44 18.91 20.97C20.04 21.04 20.98 20.1 20.98 18.97L20.98 17.24C20.99 16.23 20.23 15.38 19.22 15.26Z" fill="#9C9C9C" fill-opacity="1.000000" fill-rule="evenodd"/>
</svg>
