<svg width="35.000000" height="35.000000" viewBox="0 0 35 35" fill="none" xmlns="http://www.w3.org/2000/svg" xmlns:xlink="http://www.w3.org/1999/xlink">
	<desc>
			Created with Pixso.
	</desc>
	<defs>
		<clipPath id="clip31_43">
			<rect id="search" width="35.000000" height="35.000000" fill="white" fill-opacity="0"/>
		</clipPath>
	</defs>
	<rect id="search" width="35.000000" height="35.000000" fill="#FFFFFF" fill-opacity="0"/>
	<g clip-path="url(#clip31_43)">
		<path id="矢量 267" d="M22.6 20.41L21.45 20.41L21.04 20.02C22.47 18.36 23.33 16.2 23.33 13.85C23.33 8.61 19.08 4.37 13.85 4.37C8.61 4.37 4.37 8.61 4.37 13.85C4.37 19.08 8.61 23.33 13.85 23.33C16.2 23.33 18.36 22.47 20.02 21.04L20.41 21.45L20.41 22.6L27.7 29.88L29.88 27.7L22.6 20.41ZM13.85 20.41C10.22 20.41 7.29 17.48 7.29 13.85C7.29 10.22 10.22 7.29 13.85 7.29C17.48 7.29 20.41 10.22 20.41 13.85C20.41 17.48 17.48 20.41 13.85 20.41Z" fill="#9C9C9C" fill-opacity="1.000000" fill-rule="evenodd"/>
	</g>
</svg>
