<svg width="30.000000" height="30.000000" viewBox="0 0 30 30" fill="none" xmlns="http://www.w3.org/2000/svg" xmlns:xlink="http://www.w3.org/1999/xlink">
	<defs>
		<clipPath id="clip152_4">
			<rect id="Telegram" width="30.000000" height="30.000000" fill="white" fill-opacity="0"/>
		</clipPath>
	</defs>
	<g clip-path="url(#clip152_4)">
		<path id="Background" d="M30 15C30 23.28 23.28 30 15 30C6.71 30 0 23.28 0 15C0 6.71 6.71 0 15 0C23.28 0 30 6.71 30 15Z" fill="#3D3D3D" fill-opacity="1.000000" fill-rule="evenodd"/>
		<path id="Telegram" d="M6.88 14.74C11.24 12.84 14.15 11.58 15.6 10.98C19.76 9.25 20.62 8.95 21.18 8.94C21.39 8.94 21.59 9 21.76 9.11C21.88 9.22 21.96 9.36 21.98 9.52C22.01 9.71 22.01 9.91 22 10.11C21.78 12.48 20.8 18.21 20.31 20.86C20.1 21.98 19.68 22.36 19.28 22.4C18.42 22.48 17.75 21.82 16.91 21.27C15.59 20.41 14.85 19.88 13.57 19.03C12.09 18.05 13.05 17.52 13.89 16.65C14.11 16.42 17.94 12.94 18.02 12.62C18.03 12.57 18.02 12.53 18.01 12.48C18 12.43 17.98 12.39 17.95 12.36C17.9 12.33 17.85 12.31 17.79 12.3C17.74 12.3 17.69 12.31 17.64 12.33C17.51 12.35 15.4 13.74 11.33 16.5C10.73 16.91 10.19 17.11 9.7 17.1C9.17 17.08 8.14 16.79 7.38 16.54C6.44 16.23 5.7 16.07 5.76 15.56C5.8 15.29 6.17 15.02 6.88 14.74Z" fill="#EBEBEB" fill-opacity="1.000000" fill-rule="evenodd"/>
	</g>
</svg>
