<svg width="30.000000" height="30.000000" viewBox="0 0 30 30" fill="none" xmlns="http://www.w3.org/2000/svg" xmlns:xlink="http://www.w3.org/1999/xlink">
	<defs>
		<clipPath id="clip152_3">
			<rect id="Viber" width="30.000000" height="30.000000" fill="white" fill-opacity="0"/>
		</clipPath>
	</defs>
	<g clip-path="url(#clip152_3)">
		<path id="Background" d="M30 15C30 23.28 23.28 30 15 30C6.71 30 0 23.28 0 15C0 6.71 6.71 0 15 0C23.28 0 30 6.71 30 15Z" fill="#3D3D3D" fill-opacity="1.000000" fill-rule="evenodd"/>
		<path id="Vector" d="M20.7 9.32C20.31 8.96 18.76 7.84 15.29 7.82C15.29 7.82 11.21 7.57 9.22 9.4C8.1 10.51 7.72 12.13 7.68 14.15C7.65 16.16 7.59 19.93 11.22 20.95L11.22 22.51C11.22 22.51 11.2 23.14 11.61 23.27C12.12 23.42 12.41 22.94 12.89 22.43C13.16 22.15 13.52 21.73 13.79 21.41C16.28 21.62 18.19 21.14 18.41 21.07C18.91 20.91 21.75 20.55 22.21 16.78C22.68 12.89 21.98 10.43 20.7 9.32ZM21.12 16.49C20.73 19.64 18.42 19.84 18 19.97C16.7 20.29 15.36 20.4 14.03 20.31C14.03 20.31 12.46 22.21 11.97 22.7C11.94 22.74 11.9 22.76 11.86 22.78C11.82 22.79 11.78 22.8 11.74 22.8C11.66 22.77 11.63 22.68 11.63 22.53C11.63 22.32 11.65 19.94 11.65 19.94C8.58 19.08 8.75 15.87 8.79 14.19C8.82 12.51 9.14 11.14 10.07 10.21C11.76 8.69 15.23 8.91 15.23 8.91C18.16 8.93 19.56 9.81 19.89 10.1C20.97 11.03 21.52 13.25 21.12 16.49L21.12 16.49Z" fill="#EBEBEB" fill-opacity="1.000000" fill-rule="nonzero"/>
		<path id="Viber" d="M16.72 14.25C16.67 14.25 16.62 14.23 16.58 14.2C16.55 14.16 16.53 14.12 16.52 14.07C16.49 13.4 16.18 13.07 15.54 13.04C15.49 13.04 15.44 13.01 15.4 12.98C15.37 12.94 15.35 12.89 15.35 12.83C15.36 12.78 15.38 12.73 15.42 12.7C15.46 12.66 15.51 12.65 15.56 12.65C16.4 12.69 16.87 13.18 16.92 14.04C16.92 14.1 16.9 14.15 16.86 14.19C16.83 14.22 16.78 14.25 16.73 14.25L16.72 14.25Z" fill="#EBEBEB" fill-opacity="1.000000" fill-rule="nonzero"/>
		<path id="Viber" d="M17.72 14.59C17.67 14.59 17.62 14.57 17.59 14.53C17.55 14.49 17.53 14.44 17.53 14.39C17.55 14.09 17.51 13.78 17.41 13.5C17.31 13.22 17.15 12.95 16.95 12.73C16.54 12.29 15.98 12.04 15.24 11.99C15.22 11.99 15.19 11.98 15.17 11.97C15.14 11.96 15.12 11.94 15.11 11.92C15.09 11.9 15.08 11.88 15.07 11.86C15.06 11.83 15.06 11.81 15.06 11.78C15.06 11.75 15.07 11.73 15.08 11.71C15.09 11.68 15.11 11.66 15.13 11.65C15.15 11.63 15.17 11.62 15.19 11.61C15.22 11.6 15.24 11.6 15.27 11.6C16.11 11.66 16.77 11.95 17.24 12.47C17.47 12.73 17.66 13.03 17.77 13.36C17.89 13.69 17.94 14.05 17.92 14.4C17.92 14.42 17.92 14.45 17.91 14.47C17.9 14.49 17.88 14.52 17.86 14.53C17.85 14.55 17.82 14.57 17.8 14.58C17.78 14.58 17.75 14.59 17.72 14.59Z" fill="#EBEBEB" fill-opacity="1.000000" fill-rule="nonzero"/>
		<path id="Viber" d="M18.75 14.99C18.7 14.99 18.65 14.97 18.62 14.93C18.58 14.9 18.56 14.85 18.56 14.8C18.55 13.61 18.19 12.67 17.5 12.01C17.16 11.67 16.75 11.41 16.31 11.23C15.86 11.06 15.38 10.97 14.9 10.98C14.85 10.97 14.81 10.95 14.78 10.92C14.74 10.88 14.72 10.83 14.72 10.78C14.72 10.73 14.74 10.69 14.78 10.65C14.81 10.61 14.85 10.59 14.9 10.59C15.43 10.58 15.96 10.67 16.45 10.86C16.95 11.06 17.4 11.35 17.78 11.72C18.55 12.47 18.94 13.5 18.95 14.79C18.95 14.81 18.94 14.84 18.93 14.86C18.93 14.88 18.91 14.91 18.89 14.92C18.87 14.94 18.85 14.96 18.83 14.97C18.81 14.98 18.78 14.98 18.75 14.98L18.75 14.99Z" fill="#EBEBEB" fill-opacity="1.000000" fill-rule="nonzero"/>
		<path id="Viber" d="M15.59 16.68C15.66 16.69 15.74 16.67 15.81 16.65C15.89 16.62 15.95 16.57 16.01 16.52L16.3 16.16C16.4 16.05 16.53 15.97 16.68 15.95C16.83 15.93 16.98 15.97 17.1 16.05C17.35 16.19 17.59 16.34 17.82 16.5C18.04 16.66 18.49 17.04 18.49 17.04C18.59 17.12 18.66 17.24 18.68 17.38C18.7 17.51 18.68 17.65 18.61 17.76C18.45 18.04 18.24 18.29 18 18.5C17.83 18.66 17.62 18.76 17.39 18.8C17.36 18.8 17.33 18.8 17.3 18.8C17.21 18.8 17.13 18.79 17.04 18.76L17.04 18.75C16.73 18.66 16.22 18.44 15.37 17.97C14.87 17.71 14.39 17.4 13.95 17.05C13.73 16.88 13.51 16.69 13.31 16.5L13.29 16.48L13.27 16.45L13.25 16.43L13.23 16.41C13.03 16.21 12.84 16 12.67 15.78C12.32 15.33 12 14.86 11.73 14.37C11.26 13.51 11.03 13 10.95 12.69L10.94 12.69C10.91 12.61 10.9 12.52 10.9 12.43C10.9 12.4 10.9 12.37 10.9 12.34C10.94 12.11 11.04 11.89 11.2 11.72C11.42 11.48 11.67 11.27 11.94 11.11C12.06 11.04 12.19 11.01 12.33 11.04C12.46 11.06 12.58 11.13 12.67 11.23C12.67 11.23 13.04 11.68 13.2 11.9C13.36 12.11 13.53 12.36 13.67 12.61C13.75 12.73 13.78 12.88 13.76 13.03C13.74 13.18 13.67 13.31 13.56 13.41L13.19 13.7C13.14 13.76 13.1 13.82 13.07 13.89C13.04 13.97 13.03 14.04 13.03 14.12C13.03 14.12 13.57 16.17 15.59 16.68Z" fill="#EBEBEB" fill-opacity="1.000000" fill-rule="nonzero"/>
	</g>
</svg>
