<svg width="30.000000" height="30.000000" viewBox="0 0 30 30" fill="none" xmlns="http://www.w3.org/2000/svg" xmlns:xlink="http://www.w3.org/1999/xlink">
	<defs>
		<clipPath id="clip152_2">
			<rect id="WhatsApp" width="30.000000" height="30.000000" fill="white" fill-opacity="0"/>
		</clipPath>
	</defs>
	<g clip-path="url(#clip152_2)">
		<path id="Background" d="M30 15C30 23.28 23.28 30 15 30C6.71 30 0 23.28 0 15C0 6.71 6.71 0 15 0C23.28 0 30 6.71 30 15Z" fill="#3D3D3D" fill-opacity="1.000000" fill-rule="evenodd"/>
		<path id="WhatsApp" d="M7.66 22.46L8.71 18.61C7.9 17.2 7.57 15.55 7.78 13.94C8 12.32 8.74 10.81 9.9 9.66C11.05 8.51 12.56 7.77 14.18 7.55C15.8 7.34 17.44 7.67 18.85 8.49C20.27 9.3 21.37 10.56 22 12.07C22.62 13.58 22.73 15.26 22.31 16.83C21.89 18.41 20.95 19.8 19.66 20.8C18.36 21.79 16.77 22.33 15.14 22.33C13.9 22.33 12.68 22.02 11.6 21.43L7.66 22.46ZM11.77 20.09L12 20.23C12.95 20.79 14.03 21.09 15.14 21.09C16.51 21.09 17.84 20.63 18.92 19.8C20 18.96 20.77 17.79 21.11 16.46C21.46 15.14 21.35 13.74 20.81 12.48C20.27 11.22 19.32 10.18 18.13 9.52C16.93 8.86 15.55 8.61 14.2 8.82C12.84 9.03 11.6 9.68 10.66 10.68C9.72 11.67 9.14 12.95 9 14.31C8.87 15.67 9.19 17.04 9.91 18.2L10.05 18.43L9.43 20.71L11.77 20.09Z" fill="#EBEBEB" fill-opacity="1.000000" fill-rule="nonzero"/>
		<path id="WhatsApp" d="M18.88 16.67C18.83 16.6 18.71 16.55 18.52 16.46C18.34 16.37 17.43 15.92 17.26 15.85C17.09 15.79 16.96 15.76 16.84 15.95C16.71 16.13 16.36 16.55 16.25 16.67C16.15 16.8 16.03 16.81 15.85 16.72C15.31 16.5 14.8 16.19 14.37 15.8C13.96 15.43 13.61 14.99 13.34 14.52C13.23 14.33 13.32 14.24 13.42 14.14C13.51 14.04 13.6 13.92 13.7 13.81C13.77 13.72 13.84 13.61 13.88 13.5C13.91 13.45 13.92 13.4 13.91 13.34C13.91 13.28 13.9 13.23 13.87 13.18C13.82 13.09 13.45 12.17 13.29 11.8C13.14 11.43 12.99 11.49 12.88 11.48C12.76 11.48 12.64 11.48 12.52 11.48C12.43 11.48 12.33 11.51 12.25 11.55C12.16 11.59 12.08 11.64 12.02 11.72C11.81 11.91 11.65 12.15 11.53 12.42C11.42 12.68 11.37 12.96 11.37 13.25C11.37 14.16 12.03 15.05 12.13 15.17C12.22 15.29 13.44 17.17 15.3 17.97C15.64 18.12 15.99 18.25 16.35 18.36C16.73 18.47 17.13 18.5 17.52 18.43C17.88 18.38 18.62 17.98 18.78 17.55C18.94 17.12 18.93 16.75 18.88 16.67Z" fill="#EBEBEB" fill-opacity="1.000000" fill-rule="evenodd"/>
	</g>
</svg>
